<svg xmlns="http://www.w3.org/2000/svg" viewBox="0 0 64 64">
  <defs><linearGradient id="g" x1="0" y1="0" x2="1" y2="1"><stop offset="0" stop-color="#ff9bc0"/><stop offset="1" stop-color="#ff5f7a"/></linearGradient></defs>
  <rect x="6" y="6" width="52" height="52" rx="20" fill="url(#g)"/>
  <path d="M18 22a8 8 0 0 1 8-8h12a8 8 0 0 1 8 8v8a8 8 0 0 1-8 8h-7l-8 8v-8h-1a8 8 0 0 1-8-8z" fill="#fff"/>
  <path d="M32 21.5c2.4-3 7.6-1.7 7.6 2.3 0 4.7-7.6 8.8-7.6 8.8s-7.6-4.1-7.6-8.8c0-4 5.2-5.3 7.6-2.3z" fill="#ff5f7a"/>
</svg>
