<svg xmlns="http://www.w3.org/2000/svg" viewBox="0 0 48 64">
  <defs><linearGradient id="g" x1="0" y1="0" x2="1" y2="1"><stop offset="0" stop-color="#8ec5ff"/><stop offset="1" stop-color="#3f7be8"/></linearGradient><filter id="s" x="-50%" y="-50%" width="200%" height="200%"><feDropShadow dx="0" dy="2" stdDeviation="2" flood-opacity="0.25"/></filter></defs>
  <g filter="url(#s)">
    <path d="M24 4C13 4 4 13 4 24c0 15.2 17.3 31.4 19 33.1a1.5 1.5 0 0 0 2 0C26.7 55.4 44 39.2 44 24 44 13 35 4 24 4z" fill="url(#g)"/>
    <circle cx="24" cy="24" r="12" fill="#fff"/>
    <path d="M24 16l7 2.5v4.5c0 4.6-2.5 8.6-7 10-4.5-1.4-7-5.4-7-10v-4.5z" fill="#3f7be8"/>
  </g>
</svg>
