<svg xmlns="http://www.w3.org/2000/svg" viewBox="0 0 48 64">
  <defs><linearGradient id="g" x1="0" y1="0" x2="1" y2="1"><stop offset="0" stop-color="#ff9bc0"/><stop offset="1" stop-color="#ff5f7a"/></linearGradient><filter id="s" x="-50%" y="-50%" width="200%" height="200%"><feDropShadow dx="0" dy="2" stdDeviation="2" flood-opacity="0.25"/></filter></defs>
  <g filter="url(#s)">
    <path d="M24 4C13 4 4 13 4 24c0 15.2 17.3 31.4 19 33.1a1.5 1.5 0 0 0 2 0C26.7 55.4 44 39.2 44 24 44 13 35 4 24 4z" fill="url(#g)"/>
    <circle cx="24" cy="24" r="12" fill="#fff"/>
    <path d="M24 18c1.5-1.8 4.8-1 4.8 1.5 0 2.8-4.8 5.2-4.8 5.2s-4.8-2.4-4.8-5.2c0-2.5 3.3-3.3 4.8-1.5z" fill="#ff5f7a"/><path d="M17 28h14" stroke="#ff5f7a" stroke-width="2.4" stroke-linecap="round"/>
  </g>
</svg>
