<svg xmlns="http://www.w3.org/2000/svg" viewBox="0 0 48 64">
  <defs><linearGradient id="g" x1="0" y1="0" x2="1" y2="1"><stop offset="0" stop-color="#caa8ff"/><stop offset="1" stop-color="#8358e8"/></linearGradient><filter id="s" x="-50%" y="-50%" width="200%" height="200%"><feDropShadow dx="0" dy="2" stdDeviation="2" flood-opacity="0.25"/></filter></defs>
  <g filter="url(#s)">
    <path d="M24 4C13 4 4 13 4 24c0 15.2 17.3 31.4 19 33.1a1.5 1.5 0 0 0 2 0C26.7 55.4 44 39.2 44 24 44 13 35 4 24 4z" fill="url(#g)"/>
    <circle cx="24" cy="24" r="12" fill="#fff"/>
    <g fill="none" stroke="#8358e8" stroke-width="2.6" stroke-linecap="round"><path d="M17 27h11"/><path d="M28 27h3"/><path d="M21 19c0-2.5 3-2.5 3-5"/><path d="M26 20c0-2.5 3-2.5 3-5"/></g><path d="M31 26.8h2.8" stroke="#f9b63d" stroke-width="2.6" stroke-linecap="round"/>
  </g>
</svg>
