<svg xmlns="http://www.w3.org/2000/svg" viewBox="0 0 48 64">
  <defs><linearGradient id="g" x1="0" y1="0" x2="1" y2="1"><stop offset="0" stop-color="#7de1ec"/><stop offset="1" stop-color="#2596be"/></linearGradient><filter id="s" x="-50%" y="-50%" width="200%" height="200%"><feDropShadow dx="0" dy="2" stdDeviation="2" flood-opacity="0.25"/></filter></defs>
  <g filter="url(#s)">
    <path d="M24 4C13 4 4 13 4 24c0 15.2 17.3 31.4 19 33.1a1.5 1.5 0 0 0 2 0C26.7 55.4 44 39.2 44 24 44 13 35 4 24 4z" fill="url(#g)"/>
    <circle cx="24" cy="24" r="12" fill="#fff"/>
    <g fill="#2596be"><circle cx="20" cy="18" r="2.2"/><rect x="18.3" y="21" width="3.4" height="7" rx="1.7"/><circle cx="28" cy="18" r="2.2"/><path d="M26.5 21h3l2 7h-2l-.6 5h-1.8l-.6-5h-2z"/></g>
  </g>
</svg>
